<?xml version="1.0"?>
<svg xmlns="http://www.w3.org/2000/svg" xmlns:xlink="http://www.w3.org/1999/xlink" version="1.1" id="Capa_1" x="0px" y="0px" viewBox="0 0 512 512" style="enable-background:new 0 0 512 512;" xml:space="preserve" width="512px" height="512px" class=""><g><g>
	<g>
		<path d="M426.667,279.729C426.667,186.438,352.875,0,256,0S85.333,186.438,85.333,279.729c0,62.117,34.409,116.35,85.333,145.501    v36.415l-24.708,8.24c-5.583,1.854-8.604,7.896-6.75,13.49c1.5,4.469,5.667,7.292,10.125,7.292c1.125,0,2.25-0.177,3.375-0.552    l17.958-5.986v17.204c0,5.896,4.771,10.667,10.667,10.667c5.896,0,10.667-4.771,10.667-10.667v-17.198l17.958,5.979    c5.604,1.885,11.625-1.135,13.5-6.74c1.854-5.594-1.167-11.635-6.75-13.49L192,461.65v-26.039    C211.785,443.538,233.362,448,256,448s44.215-4.462,64-12.389v26.035l-24.708,8.24c-5.583,1.854-8.604,7.896-6.75,13.49    c1.5,4.469,5.667,7.292,10.125,7.292c1.125,0,2.25-0.177,3.375-0.552L320,484.129v17.204c0,5.896,4.771,10.667,10.667,10.667    c5.896,0,10.667-4.771,10.667-10.667v-17.198l17.958,5.979c5.625,1.885,11.625-1.135,13.5-6.74    c1.854-5.594-1.167-11.635-6.75-13.49l-24.708-8.236V425.23C392.258,396.079,426.667,341.846,426.667,279.729z M256,426.667    c-82.333,0-149.333-65.917-149.333-146.938c0-75.233,46.423-193.298,103.285-239.115l30.756,8.781l-15.583,31.167    c-1.333,2.667-1.479,5.771-0.438,8.563c1.063,2.792,3.25,5,6.021,6.115l35.708,14.281l-27.479,20.615    c-4.688,3.51-5.667,10.125-2.208,14.833l20.396,27.823c2.083,2.854,5.333,4.365,8.604,4.365c2.188,0,4.396-0.667,6.313-2.063    c4.75-3.49,5.771-10.156,2.292-14.906l-14.167-19.323l34.229-25.667c3.083-2.313,4.688-6.104,4.188-9.927    c-0.521-3.823-3.042-7.073-6.625-8.51L249.396,79.74l16.146-32.302c1.417-2.844,1.5-6.167,0.229-9.063    c-1.292-2.906-3.792-5.094-6.833-5.969l-23.557-6.728c6.829-2.561,13.706-4.345,20.62-4.345    c75.542,0,149.333,163.5,149.333,258.396C405.333,360.75,338.333,426.667,256,426.667z" data-original="#000000" class="active-path" fill="#000000"/>
	</g>
</g></g> </svg>
